<svg xmlns="http://www.w3.org/2000/svg" viewBox="0 0 1600 720" role="img" aria-labelledby="t d"><title id="t">UAE city skyline</title><desc id="d">Stylised premium skyline inspired by the UAE, with sea, palms and a subtle flag ribbon.</desc><defs><linearGradient id="sky" x1="0" y1="0" x2="1" y2="1"><stop stop-color="#eef7f5"/><stop offset=".55" stop-color="#f8f2e4"/><stop offset="1" stop-color="#d8ebe8"/></linearGradient><linearGradient id="sea" x1="0" x2="1"><stop stop-color="#0b4258"/><stop offset="1" stop-color="#0a6a58"/></linearGradient><linearGradient id="gold" x1="0" x2="1"><stop stop-color="#8f6925"/><stop offset=".5" stop-color="#d8b75f"/><stop offset="1" stop-color="#9c742d"/></linearGradient><filter id="glow"><feGaussianBlur stdDeviation="28"/></filter></defs><rect width="1600" height="720" fill="url(#sky)"/><circle cx="1180" cy="170" r="115" fill="#fff3c9" opacity=".65" filter="url(#glow)"/><circle cx="1180" cy="170" r="58" fill="#f5d58a" opacity=".8"/><path d="M0 510C310 470 500 540 760 500s520-20 840 20v200H0z" fill="url(#sea)"/><g fill="#123348" opacity=".94"><path d="M180 505V320h72v185zM268 505V270h58v235zM345 505V350h92v155zM465 505V225h76v280zM570 505V315h104v190zM705 505V370h76v135zM825 505V290h88v215zM945 505V335h95v170z"/><path d="M1095 505h76V245h-76zM1205 505h80V305h-80zM1320 505h96V355h-96z"/></g><g fill="url(#gold)"><path d="M735 505h44L757 82z"/><path d="M742 112h30l-15-72z"/><rect x="1040" y="350" width="20" height="155"/></g><g fill="#fff" opacity=".32"><rect x="198" y="345" width="9" height="135"/><rect x="289" y="292" width="7" height="188"/><rect x="490" y="250" width="8" height="230"/><rect x="851" y="312" width="8" height="165"/></g><g stroke="#18394c" stroke-width="10" stroke-linecap="round"><path d="M80 540c18-70 24-105 25-145"/><path d="M105 405c-35-28-58-28-77-20M105 420c32-34 60-40 85-31M105 438c-34-19-55-15-76-2"/></g><g opacity=".9"><path d="M0 0h38v180H0z" fill="#d71920"/><path d="M38 0h300v60H38z" fill="#009739"/><path d="M38 60h300v60H38z" fill="#fff"/><path d="M38 120h300v60H38z" fill="#000"/></g><path d="M0 570c280-42 420 38 700 0s570-34 900 6" fill="none" stroke="#d7b35a" stroke-width="4" opacity=".55"/></svg>