<svg xmlns="http://www.w3.org/2000/svg" width="1200" height="630" viewBox="0 0 1200 630">
  <defs>
    <linearGradient id="bg" x1="0" y1="0" x2="1" y2="1">
      <stop offset="0" stop-color="#061d2c"/><stop offset="0.55" stop-color="#0b3d34"/><stop offset="1" stop-color="#126655"/>
    </linearGradient>
    <radialGradient id="glow" cx="0.84" cy="0.12" r="0.78">
      <stop offset="0" stop-color="#e6bd69" stop-opacity="0.3"/><stop offset="1" stop-color="#e6bd69" stop-opacity="0"/>
    </radialGradient>
    <filter id="shadow" x="-20%" y="-20%" width="140%" height="140%"><feDropShadow dx="0" dy="18" stdDeviation="22" flood-color="#001018" flood-opacity="0.35"/></filter>
  </defs>
  <rect width="1200" height="630" fill="url(#bg)"/><rect width="1200" height="630" fill="url(#glow)"/>
  <circle cx="1085" cy="90" r="230" fill="none" stroke="#e6bd69" stroke-opacity="0.12" stroke-width="2"/>
  <circle cx="1085" cy="90" r="175" fill="none" stroke="#e6bd69" stroke-opacity="0.16" stroke-width="2"/>
  <path d="M0 505 C270 420 465 590 730 500 C930 432 1058 430 1200 468 V630 H0Z" fill="#041622" fill-opacity="0.45"/>
  <g transform="translate(72 66)" filter="url(#shadow)"><rect width="1056" height="492" rx="32" fill="#ffffff" fill-opacity="0.055" stroke="#ffffff" stroke-opacity="0.14"/></g>
  <g transform="translate(112 108)"><circle cx="68" cy="68" r="66" fill="#071f33" stroke="#e6bd69" stroke-width="4"/><circle cx="68" cy="68" r="52" fill="none" stroke="#e6bd69" stroke-opacity="0.45" stroke-width="2"/><text x="68" y="80" text-anchor="middle" font-family="Georgia, serif" font-size="42" font-weight="700" fill="#e6bd69">HB</text></g>
  <text x="285" y="145" font-family="Arial, sans-serif" font-size="28" font-weight="700" letter-spacing="4" fill="#e6bd69">HOSSAM BAHR</text>
  <text x="285" y="188" font-family="Arial, sans-serif" font-size="19" font-weight="600" letter-spacing="2" fill="#d5e5e0">BUSINESS PLATFORM · UAE</text>
  <text x="600" y="300" text-anchor="middle" font-family="Arial, Tahoma, sans-serif" font-size="52" font-weight="700" fill="#ffffff">منصة الأعمال والمعاملات</text>
  <text x="600" y="368" text-anchor="middle" font-family="Arial, Tahoma, sans-serif" font-size="52" font-weight="700" fill="#ffffff">في دولة الإمارات</text>
  <rect x="112" y="416" width="976" height="1" fill="#ffffff" fill-opacity="0.18"/>
  <text x="112" y="467" font-family="Arial, sans-serif" font-size="23" font-weight="600" fill="#f5d998">GUIDES · GOVERNMENT ROUTES · BUSINESS MANAGEMENT</text>
  <text x="112" y="515" font-family="Arial, sans-serif" font-size="22" fill="#d5e5e0">hossambahr.com</text>
</svg>
